<mxfile host="localhost" modified="2025-01-16T02:28:42.949Z" agent="Mozilla/5.0 (Macintosh; Intel Mac OS X 10_15_7) AppleWebKit/537.36 (KHTML, like Gecko) yank.note/3.80.0 Chrome/124.0.6367.243 Electron/30.3.1 Safari/537.36" etag="9ruwSBhPBySXKCw-mUJy" version="24.3.1" type="embed">
  <diagram id="inMPcjYvnmvmxzhDKLPN" name="Page-1">
    <mxGraphModel dx="1536" dy="1370" grid="1" gridSize="10" guides="1" tooltips="1" connect="1" arrows="1" fold="1" page="0" pageScale="1" pageWidth="827" pageHeight="1169" math="0" shadow="0">
      <root>
        <mxCell id="0" />
        <mxCell id="1" parent="0" />
        <mxCell id="3" value="paypal信用卡支付流程图" style="swimlane;" parent="1" vertex="1">
          <mxGeometry x="103" y="49" width="620" height="1091" as="geometry" />
        </mxCell>
        <mxCell id="119" value="" style="rounded=0;whiteSpace=wrap;html=1;strokeWidth=2;" parent="3" vertex="1">
          <mxGeometry x="337" y="616" width="233" height="124" as="geometry" />
        </mxCell>
        <mxCell id="99" value="" style="rounded=0;whiteSpace=wrap;html=1;strokeWidth=2;" parent="3" vertex="1">
          <mxGeometry x="160" y="752" width="420" height="320" as="geometry" />
        </mxCell>
        <mxCell id="7" value="" style="sketch=0;pointerEvents=1;shadow=0;dashed=0;html=1;strokeColor=none;fillColor=#505050;labelPosition=center;verticalLabelPosition=bottom;verticalAlign=top;outlineConnect=0;align=center;shape=mxgraph.office.devices.mac_client;" parent="3" vertex="1">
          <mxGeometry x="189" y="57" width="58" height="48" as="geometry" />
        </mxCell>
        <mxCell id="8" value="" style="endArrow=none;dashed=1;html=1;rounded=0;" parent="3" edge="1">
          <mxGeometry width="50" height="50" relative="1" as="geometry">
            <mxPoint x="210" y="1071" as="sourcePoint" />
            <mxPoint x="218" y="111" as="targetPoint" />
          </mxGeometry>
        </mxCell>
        <mxCell id="9" value="" style="sketch=0;pointerEvents=1;shadow=0;dashed=0;html=1;strokeColor=none;fillColor=#505050;labelPosition=center;verticalLabelPosition=bottom;verticalAlign=top;outlineConnect=0;align=center;shape=mxgraph.office.servers.web_server;" parent="3" vertex="1">
          <mxGeometry x="360" y="57" width="48" height="57" as="geometry" />
        </mxCell>
        <mxCell id="10" value="" style="dashed=0;outlineConnect=0;html=1;align=center;labelPosition=center;verticalLabelPosition=bottom;verticalAlign=top;shape=mxgraph.weblogos.paypal;fillColor=default;shadow=0;strokeColor=default;fillOpacity=100;strokeOpacity=100;comic=0;" parent="3" vertex="1">
          <mxGeometry x="510" y="54" width="51.2" height="58" as="geometry" />
        </mxCell>
        <mxCell id="11" value="" style="verticalLabelPosition=bottom;sketch=0;html=1;fillColor=#282828;strokeColor=none;verticalAlign=top;pointerEvents=1;align=center;shape=mxgraph.cisco_safe.people_places_things_icons.icon2;" parent="3" vertex="1">
          <mxGeometry x="42" y="56" width="50" height="41" as="geometry" />
        </mxCell>
        <mxCell id="12" value="" style="endArrow=none;dashed=1;html=1;rounded=0;" parent="3" edge="1">
          <mxGeometry width="50" height="50" relative="1" as="geometry">
            <mxPoint x="376" y="1061" as="sourcePoint" />
            <mxPoint x="386" y="121" as="targetPoint" />
          </mxGeometry>
        </mxCell>
        <mxCell id="13" value="" style="endArrow=none;dashed=1;html=1;rounded=0;" parent="3" edge="1">
          <mxGeometry width="50" height="50" relative="1" as="geometry">
            <mxPoint x="532" y="1061" as="sourcePoint" />
            <mxPoint x="532" y="121" as="targetPoint" />
          </mxGeometry>
        </mxCell>
        <mxCell id="22" value="" style="endArrow=classic;html=1;rounded=0;" parent="3" edge="1">
          <mxGeometry width="50" height="50" relative="1" as="geometry">
            <mxPoint x="70" y="150" as="sourcePoint" />
            <mxPoint x="200" y="150" as="targetPoint" />
          </mxGeometry>
        </mxCell>
        <mxCell id="24" value="&lt;font style=&quot;font-size: 10px;&quot;&gt;1. 点击信用卡支付&lt;/font&gt;" style="text;html=1;align=center;verticalAlign=middle;whiteSpace=wrap;rounded=0;" parent="3" vertex="1">
          <mxGeometry x="40" y="120" width="180" height="30" as="geometry" />
        </mxCell>
        <mxCell id="35" value="" style="rounded=0;whiteSpace=wrap;html=1;rotation=-90;" parent="3" vertex="1">
          <mxGeometry x="-43.46" y="384.44" width="515.41" height="8.5" as="geometry" />
        </mxCell>
        <mxCell id="38" value="用户" style="text;html=1;align=center;verticalAlign=middle;whiteSpace=wrap;rounded=0;strokeWidth=2;" parent="3" vertex="1">
          <mxGeometry x="36" y="25" width="60" height="30" as="geometry" />
        </mxCell>
        <mxCell id="40" value="PC" style="text;html=1;align=center;verticalAlign=middle;whiteSpace=wrap;rounded=0;" parent="3" vertex="1">
          <mxGeometry x="185" y="25" width="60" height="30" as="geometry" />
        </mxCell>
        <mxCell id="41" value="商家服务器" style="text;html=1;align=center;verticalAlign=middle;whiteSpace=wrap;rounded=0;" parent="3" vertex="1">
          <mxGeometry x="333" y="28" width="90" height="28" as="geometry" />
        </mxCell>
        <mxCell id="42" value="paypal服务器" style="text;html=1;align=center;verticalAlign=middle;whiteSpace=wrap;rounded=0;" parent="3" vertex="1">
          <mxGeometry x="490.6" y="26" width="90" height="28" as="geometry" />
        </mxCell>
        <mxCell id="43" value="" style="rounded=0;whiteSpace=wrap;html=1;rotation=-90;fillColor=#00FF80;" parent="3" vertex="1">
          <mxGeometry x="332.5" y="211.5" width="95" height="10" as="geometry" />
        </mxCell>
        <mxCell id="48" value="" style="endArrow=classic;html=1;rounded=0;" parent="3" edge="1">
          <mxGeometry width="50" height="50" relative="1" as="geometry">
            <mxPoint x="230" y="178" as="sourcePoint" />
            <mxPoint x="360" y="178" as="targetPoint" />
          </mxGeometry>
        </mxCell>
        <mxCell id="49" value="&lt;font style=&quot;font-size: 10px;&quot;&gt;2. 创建信用卡订单&lt;/font&gt;" style="text;html=1;align=center;verticalAlign=middle;whiteSpace=wrap;rounded=0;" parent="3" vertex="1">
          <mxGeometry x="193" y="150" width="180" height="30" as="geometry" />
        </mxCell>
        <mxCell id="51" value="&lt;font style=&quot;font-size: 10px;&quot;&gt;3. 创建Paypal信用卡订单&lt;/font&gt;" style="text;html=1;align=center;verticalAlign=middle;whiteSpace=wrap;rounded=0;" parent="3" vertex="1">
          <mxGeometry x="366" y="171" width="180" height="30" as="geometry" />
        </mxCell>
        <mxCell id="52" value="" style="endArrow=classic;html=1;rounded=0;" parent="3" edge="1">
          <mxGeometry width="50" height="50" relative="1" as="geometry">
            <mxPoint x="390" y="211" as="sourcePoint" />
            <mxPoint x="520" y="211" as="targetPoint" />
          </mxGeometry>
        </mxCell>
        <mxCell id="53" value="" style="rounded=0;whiteSpace=wrap;html=1;rotation=-90;fillColor=#3399FF;" parent="3" vertex="1">
          <mxGeometry x="502.5" y="218.5" width="55" height="10" as="geometry" />
        </mxCell>
        <mxCell id="56" value="" style="endArrow=classic;html=1;rounded=0;dashed=1;" parent="3" edge="1">
          <mxGeometry width="50" height="50" relative="1" as="geometry">
            <mxPoint x="520" y="231" as="sourcePoint" />
            <mxPoint x="390" y="231" as="targetPoint" />
          </mxGeometry>
        </mxCell>
        <mxCell id="57" value="&lt;font style=&quot;font-size: 10px;&quot;&gt;4. 返回Paypal信用卡订单号&lt;/font&gt;" style="text;html=1;align=center;verticalAlign=middle;whiteSpace=wrap;rounded=0;" parent="3" vertex="1">
          <mxGeometry x="366" y="228.5" width="180" height="30" as="geometry" />
        </mxCell>
        <mxCell id="58" value="" style="endArrow=classic;html=1;rounded=0;dashed=1;" parent="3" edge="1">
          <mxGeometry width="50" height="50" relative="1" as="geometry">
            <mxPoint x="360" y="251" as="sourcePoint" />
            <mxPoint x="230" y="251" as="targetPoint" />
          </mxGeometry>
        </mxCell>
        <mxCell id="59" value="&lt;font style=&quot;font-size: 10px;&quot;&gt;5. 返回商户订单号和paypal订单号&lt;/font&gt;" style="text;html=1;align=center;verticalAlign=middle;whiteSpace=wrap;rounded=0;" parent="3" vertex="1">
          <mxGeometry x="210" y="251" width="180" height="30" as="geometry" />
        </mxCell>
        <mxCell id="62" value="" style="endArrow=classic;html=1;rounded=0;edgeStyle=orthogonalEdgeStyle;" parent="3" edge="1">
          <mxGeometry width="50" height="50" relative="1" as="geometry">
            <mxPoint x="220" y="281" as="sourcePoint" />
            <mxPoint x="220" y="341" as="targetPoint" />
            <Array as="points">
              <mxPoint x="220" y="282" />
              <mxPoint x="250" y="282" />
              <mxPoint x="250" y="341" />
            </Array>
          </mxGeometry>
        </mxCell>
        <mxCell id="63" value="&lt;font color=&quot;#ff3333&quot; style=&quot;font-size: 10px;&quot;&gt;6. 使用SDK展示信用卡输入&lt;/font&gt;" style="text;html=1;align=center;verticalAlign=middle;whiteSpace=wrap;rounded=0;" parent="3" vertex="1">
          <mxGeometry x="220" y="301" width="180" height="30" as="geometry" />
        </mxCell>
        <mxCell id="65" value="" style="endArrow=classic;html=1;rounded=0;" parent="3" edge="1">
          <mxGeometry width="50" height="50" relative="1" as="geometry">
            <mxPoint x="221.75" y="392" as="sourcePoint" />
            <mxPoint x="520" y="392" as="targetPoint" />
          </mxGeometry>
        </mxCell>
        <mxCell id="66" value="" style="rounded=0;whiteSpace=wrap;html=1;rotation=-90;fillColor=#3399FF;" parent="3" vertex="1">
          <mxGeometry x="434.31" y="464.18" width="195.37" height="10" as="geometry" />
        </mxCell>
        <mxCell id="67" value="&lt;font style=&quot;font-size: 10px;&quot;&gt;9. 提交paypal订单号和信用卡信息&lt;/font&gt;" style="text;html=1;align=center;verticalAlign=middle;whiteSpace=wrap;rounded=0;" parent="3" vertex="1">
          <mxGeometry x="260" y="364" width="180" height="30" as="geometry" />
        </mxCell>
        <mxCell id="69" value="" style="endArrow=classic;html=1;rounded=0;" parent="3" edge="1">
          <mxGeometry width="50" height="50" relative="1" as="geometry">
            <mxPoint x="78" y="378" as="sourcePoint" />
            <mxPoint x="208" y="378" as="targetPoint" />
          </mxGeometry>
        </mxCell>
        <mxCell id="70" value="" style="endArrow=classic;html=1;rounded=0;dashed=1;" parent="3" edge="1">
          <mxGeometry width="50" height="50" relative="1" as="geometry">
            <mxPoint x="210" y="351" as="sourcePoint" />
            <mxPoint x="70" y="351" as="targetPoint" />
          </mxGeometry>
        </mxCell>
        <mxCell id="71" value="&lt;font style=&quot;font-size: 10px;&quot;&gt;7. 等待用户输入个人信息&lt;/font&gt;" style="text;html=1;align=center;verticalAlign=middle;whiteSpace=wrap;rounded=0;" parent="3" vertex="1">
          <mxGeometry x="54" y="328" width="180" height="30" as="geometry" />
        </mxCell>
        <mxCell id="75" value="" style="rounded=0;whiteSpace=wrap;html=1;rotation=-90;fillColor=#00FF80;" parent="3" vertex="1">
          <mxGeometry x="317" y="523" width="129" height="10" as="geometry" />
        </mxCell>
        <mxCell id="77" value="" style="endArrow=classic;html=1;rounded=0;" parent="3" edge="1">
          <mxGeometry width="50" height="50" relative="1" as="geometry">
            <mxPoint x="220" y="481" as="sourcePoint" />
            <mxPoint x="370" y="481" as="targetPoint" />
          </mxGeometry>
        </mxCell>
        <mxCell id="78" value="&lt;font color=&quot;#ff3333&quot; style=&quot;font-size: 10px;&quot;&gt;11. SDK回调Capture商户请求&lt;/font&gt;" style="text;html=1;align=center;verticalAlign=middle;whiteSpace=wrap;rounded=0;" parent="3" vertex="1">
          <mxGeometry x="204" y="453" width="180" height="30" as="geometry" />
        </mxCell>
        <mxCell id="80" value="&lt;font style=&quot;font-size: 10px;&quot;&gt;12. 请求paypal扣款&lt;/font&gt;" style="text;html=1;align=center;verticalAlign=middle;whiteSpace=wrap;rounded=0;" parent="3" vertex="1">
          <mxGeometry x="366" y="471.25" width="180" height="30" as="geometry" />
        </mxCell>
        <mxCell id="81" value="" style="endArrow=classic;html=1;rounded=0;dashed=1;" parent="3" edge="1">
          <mxGeometry width="50" height="50" relative="1" as="geometry">
            <mxPoint x="520" y="536" as="sourcePoint" />
            <mxPoint x="390" y="536" as="targetPoint" />
          </mxGeometry>
        </mxCell>
        <mxCell id="82" value="&lt;font style=&quot;font-size: 10px;&quot;&gt;13. 扣款成功 / 阻塞 通知&lt;/font&gt;" style="text;html=1;align=center;verticalAlign=middle;whiteSpace=wrap;rounded=0;" parent="3" vertex="1">
          <mxGeometry x="360" y="531" width="180" height="30" as="geometry" />
        </mxCell>
        <mxCell id="83" value="&lt;font style=&quot;font-size: 10px;&quot;&gt;14. 返回扣款成功 / 阻塞 通知&lt;/font&gt;" style="text;html=1;align=center;verticalAlign=middle;whiteSpace=wrap;rounded=0;" parent="3" vertex="1">
          <mxGeometry x="210" y="551" width="180" height="30" as="geometry" />
        </mxCell>
        <mxCell id="84" value="" style="endArrow=classic;html=1;rounded=0;dashed=1;" parent="3" edge="1">
          <mxGeometry width="50" height="50" relative="1" as="geometry">
            <mxPoint x="370" y="551" as="sourcePoint" />
            <mxPoint x="222.5" y="551" as="targetPoint" />
          </mxGeometry>
        </mxCell>
        <mxCell id="86" value="" style="endArrow=classic;html=1;rounded=0;dashed=1;" parent="3" edge="1">
          <mxGeometry width="50" height="50" relative="1" as="geometry">
            <mxPoint x="200" y="601" as="sourcePoint" />
            <mxPoint x="70.25" y="601" as="targetPoint" />
          </mxGeometry>
        </mxCell>
        <mxCell id="87" value="&lt;font style=&quot;font-size: 10px;&quot;&gt;15. 跳转成功页&lt;br&gt;或者展示Loading状态&lt;/font&gt;" style="text;html=1;align=center;verticalAlign=middle;whiteSpace=wrap;rounded=0;" parent="3" vertex="1">
          <mxGeometry x="54" y="601" width="180" height="30" as="geometry" />
        </mxCell>
        <mxCell id="88" value="" style="rounded=0;whiteSpace=wrap;html=1;rotation=-90;" parent="3" vertex="1">
          <mxGeometry x="64" y="917" width="298" height="10" as="geometry" />
        </mxCell>
        <mxCell id="89" value="" style="rounded=0;whiteSpace=wrap;html=1;rotation=-90;fillColor=#00FF80;" parent="3" vertex="1">
          <mxGeometry x="254.38" y="896.37" width="248.25" height="10" as="geometry" />
        </mxCell>
        <mxCell id="90" value="" style="rounded=0;whiteSpace=wrap;html=1;rotation=-90;fillColor=#3399FF;" parent="3" vertex="1">
          <mxGeometry x="466.6" y="893" width="130" height="10" as="geometry" />
        </mxCell>
        <mxCell id="91" value="&lt;font style=&quot;font-size: 10px;&quot;&gt;1. Loading并查询订单状态&lt;/font&gt;" style="text;html=1;align=center;verticalAlign=middle;whiteSpace=wrap;rounded=0;" parent="3" vertex="1">
          <mxGeometry x="204" y="803" width="180" height="30" as="geometry" />
        </mxCell>
        <mxCell id="92" value="" style="endArrow=classic;html=1;rounded=0;entryX=0.815;entryY=0.985;entryDx=0;entryDy=0;entryPerimeter=0;" parent="3" edge="1">
          <mxGeometry width="50" height="50" relative="1" as="geometry">
            <mxPoint x="232" y="833" as="sourcePoint" />
            <mxPoint x="359.70000000000005" y="832.55" as="targetPoint" />
          </mxGeometry>
        </mxCell>
        <mxCell id="93" value="" style="endArrow=classic;html=1;rounded=0;entryX=0.815;entryY=0.985;entryDx=0;entryDy=0;entryPerimeter=0;" parent="3" edge="1">
          <mxGeometry width="50" height="50" relative="1" as="geometry">
            <mxPoint x="390" y="863.45" as="sourcePoint" />
            <mxPoint x="517.7" y="863" as="targetPoint" />
          </mxGeometry>
        </mxCell>
        <mxCell id="94" value="&lt;font style=&quot;font-size: 10px;&quot;&gt;2. 查询订单状态&lt;/font&gt;" style="text;html=1;align=center;verticalAlign=middle;whiteSpace=wrap;rounded=0;" parent="3" vertex="1">
          <mxGeometry x="362" y="833" width="180" height="30" as="geometry" />
        </mxCell>
        <mxCell id="96" value="" style="rounded=0;whiteSpace=wrap;html=1;rotation=-90;fillColor=#3399FF;" parent="3" vertex="1">
          <mxGeometry x="493.5" y="675" width="80" height="10" as="geometry" />
        </mxCell>
        <mxCell id="100" value="&lt;font style=&quot;font-size: 10px;&quot;&gt;Alt：轮询&lt;/font&gt;" style="text;html=1;align=center;verticalAlign=middle;whiteSpace=wrap;rounded=0;" parent="3" vertex="1">
          <mxGeometry x="156" y="747" width="60" height="30" as="geometry" />
        </mxCell>
        <mxCell id="101" value="&lt;font style=&quot;font-size: 10px;&quot;&gt;3. 返回订单状态&lt;/font&gt;" style="text;html=1;align=center;verticalAlign=middle;whiteSpace=wrap;rounded=0;" parent="3" vertex="1">
          <mxGeometry x="362" y="893" width="180" height="30" as="geometry" />
        </mxCell>
        <mxCell id="102" value="" style="endArrow=classic;html=1;rounded=0;dashed=1;" parent="3" edge="1">
          <mxGeometry width="50" height="50" relative="1" as="geometry">
            <mxPoint x="517.75" y="892.62" as="sourcePoint" />
            <mxPoint x="390" y="892.62" as="targetPoint" />
          </mxGeometry>
        </mxCell>
        <mxCell id="103" value="" style="endArrow=classic;html=1;rounded=0;dashed=1;" parent="3" edge="1">
          <mxGeometry width="50" height="50" relative="1" as="geometry">
            <mxPoint x="357.87" y="927" as="sourcePoint" />
            <mxPoint x="230.12" y="927" as="targetPoint" />
          </mxGeometry>
        </mxCell>
        <mxCell id="104" value="&lt;font style=&quot;font-size: 10px;&quot;&gt;5. 返回订单状态&lt;/font&gt;" style="text;html=1;align=center;verticalAlign=middle;whiteSpace=wrap;rounded=0;" parent="3" vertex="1">
          <mxGeometry x="204" y="925" width="180" height="30" as="geometry" />
        </mxCell>
        <mxCell id="109" value="" style="endArrow=classic;html=1;rounded=0;edgeStyle=orthogonalEdgeStyle;" parent="3" edge="1">
          <mxGeometry width="50" height="50" relative="1" as="geometry">
            <mxPoint x="390" y="917" as="sourcePoint" />
            <mxPoint x="390" y="957" as="targetPoint" />
            <Array as="points">
              <mxPoint x="400" y="918" />
              <mxPoint x="400" y="957" />
            </Array>
          </mxGeometry>
        </mxCell>
        <mxCell id="110" value="&lt;font style=&quot;font-size: 10px;&quot;&gt;4. 内部逻辑处理，通知发货&lt;/font&gt;" style="text;html=1;align=center;verticalAlign=middle;whiteSpace=wrap;rounded=0;" parent="3" vertex="1">
          <mxGeometry x="373" y="927" width="180" height="30" as="geometry" />
        </mxCell>
        <mxCell id="112" value="&lt;font style=&quot;font-size: 10px;&quot;&gt;阻塞后异步通知扣款成功&lt;/font&gt;" style="text;html=1;align=center;verticalAlign=middle;whiteSpace=wrap;rounded=0;" parent="3" vertex="1">
          <mxGeometry x="407" y="640.5" width="123" height="11.5" as="geometry" />
        </mxCell>
        <mxCell id="113" value="" style="endArrow=classic;html=1;rounded=0;dashed=1;" parent="3" edge="1">
          <mxGeometry width="50" height="50" relative="1" as="geometry">
            <mxPoint x="526.88" y="654" as="sourcePoint" />
            <mxPoint x="399.13" y="654" as="targetPoint" />
          </mxGeometry>
        </mxCell>
        <mxCell id="115" value="" style="rounded=0;whiteSpace=wrap;html=1;rotation=-90;fillColor=#00FF80;" parent="3" vertex="1">
          <mxGeometry x="347.25" y="664.25" width="71.5" height="10" as="geometry" />
        </mxCell>
        <mxCell id="117" value="&lt;font style=&quot;font-size: 10px;&quot;&gt;内部逻辑处理，通知发货&lt;/font&gt;" style="text;html=1;align=center;verticalAlign=middle;whiteSpace=wrap;rounded=0;" parent="3" vertex="1">
          <mxGeometry x="369" y="674.25" width="180" height="30" as="geometry" />
        </mxCell>
        <mxCell id="118" value="" style="endArrow=classic;html=1;rounded=0;edgeStyle=orthogonalEdgeStyle;" parent="3" edge="1">
          <mxGeometry width="50" height="50" relative="1" as="geometry">
            <mxPoint x="390" y="664.21" as="sourcePoint" />
            <mxPoint x="390" y="704.21" as="targetPoint" />
            <Array as="points">
              <mxPoint x="400" y="665.21" />
              <mxPoint x="400" y="704.21" />
            </Array>
          </mxGeometry>
        </mxCell>
        <mxCell id="120" value="&lt;font style=&quot;font-size: 10px;&quot;&gt;Alt：异步通知&lt;/font&gt;" style="text;html=1;align=center;verticalAlign=middle;whiteSpace=wrap;rounded=0;" parent="3" vertex="1">
          <mxGeometry x="334" y="611" width="83" height="30" as="geometry" />
        </mxCell>
        <mxCell id="121" value="&lt;span style=&quot;font-size: 10px;&quot;&gt;6. 展示支付结果&lt;/span&gt;" style="text;html=1;align=center;verticalAlign=middle;whiteSpace=wrap;rounded=0;" parent="3" vertex="1">
          <mxGeometry x="42" y="981" width="180" height="30" as="geometry" />
        </mxCell>
        <mxCell id="122" value="" style="endArrow=classic;html=1;rounded=0;dashed=1;" parent="3" edge="1">
          <mxGeometry width="50" height="50" relative="1" as="geometry">
            <mxPoint x="193" y="971" as="sourcePoint" />
            <mxPoint x="65.25" y="971" as="targetPoint" />
          </mxGeometry>
        </mxCell>
        <mxCell id="6" value="" style="endArrow=none;dashed=1;html=1;rounded=0;entryX=0.5;entryY=1;entryDx=0;entryDy=0;" parent="1" edge="1">
          <mxGeometry width="50" height="50" relative="1" as="geometry">
            <mxPoint x="150" y="1120" as="sourcePoint" />
            <mxPoint x="150" y="150" as="targetPoint" />
          </mxGeometry>
        </mxCell>
        <mxCell id="21" value="&lt;div style=&quot;background-color: rgb(255, 255, 255); font-family: MacEmoji, Menlo, Monaco, &amp;quot;Courier New&amp;quot;, monospace, Menlo, Monaco, &amp;quot;Courier New&amp;quot;, monospace; font-size: 16px; line-height: 24px; white-space: pre;&quot;&gt;&lt;br&gt;&lt;/div&gt;" style="text;html=1;align=left;verticalAlign=middle;whiteSpace=wrap;rounded=0;" parent="1" vertex="1">
          <mxGeometry x="60" y="1740" width="1290" as="geometry" />
        </mxCell>
        <mxCell id="72" value="&lt;font style=&quot;font-size: 10px;&quot;&gt;8. 输入个人信息&lt;/font&gt;" style="text;html=1;align=center;verticalAlign=middle;whiteSpace=wrap;rounded=0;" parent="1" vertex="1">
          <mxGeometry x="134" y="404" width="180" height="30" as="geometry" />
        </mxCell>
        <mxCell id="73" value="" style="endArrow=classic;html=1;rounded=0;dashed=1;" parent="1" edge="1">
          <mxGeometry width="50" height="50" relative="1" as="geometry">
            <mxPoint x="590" y="470" as="sourcePoint" />
            <mxPoint x="310" y="470" as="targetPoint" />
          </mxGeometry>
        </mxCell>
        <mxCell id="74" value="&lt;font style=&quot;font-size: 10px;&quot;&gt;10. 返回用户Approve成功信息&lt;/font&gt;" style="text;html=1;align=center;verticalAlign=middle;whiteSpace=wrap;rounded=0;" parent="1" vertex="1">
          <mxGeometry x="323" y="465" width="180" height="30" as="geometry" />
        </mxCell>
        <mxCell id="79" value="" style="endArrow=classic;html=1;rounded=0;entryX=0.814;entryY=1.005;entryDx=0;entryDy=0;entryPerimeter=0;" parent="1" target="80" edge="1">
          <mxGeometry width="50" height="50" relative="1" as="geometry">
            <mxPoint x="500" y="550" as="sourcePoint" />
            <mxPoint x="590" y="550" as="targetPoint" />
          </mxGeometry>
        </mxCell>
      </root>
    </mxGraphModel>
  </diagram>
</mxfile>
